# xmcd CD database file
#
# Track frame offsets:
#	150
#	19963
#	43383
#	63482
#	86619
#	108932
#	132406
#	155107
#	172177
#	193549
#	215299
#	230974
#	248187
#	268395
#	289058
#	304059
#	321227
#	340893
#
# Disc length: 4737 seconds
#
# Revision: 0
# Processed by: cddbd v1.5.2PL0 Copyright (c) Steve Scherf et al.
# Submitted via: CDex 1.79
#
DISCID=20127f12
DTITLE=Cosa Nuestra - Lo Esencial CD1
DYEAR=2010
DGENRE=Salsa
TTITLE0=Abran Paso
TTITLE1=Los Entierros
TTITLE2=Irimo
TTITLE3=Isadora Duncan
TTITLE4=Necesito una Mujer
TTITLE5=Aguzate
TTITLE6=Luz Viajera
TTITLE7=El Aguacero
TTITLE8=Boranda
TTITLE9=La Boda de Ella
TTITLE10=Hoy
TTITLE11=Tambo
TTITLE12=Que Locura de Enamorarme de Ti
TTITLE13=No me digan que se muy tarde
TTITLE14=Te hice Mujer
TTITLE15=Enamorado de Ti
TTITLE16=Yo me quedo
TTITLE17=Me Enamore de Ti
EXTD=YEAR: 2010
EXTT0=
EXTT1=
EXTT2=
EXTT3=
EXTT4=
EXTT5=
EXTT6=
EXTT7=
EXTT8=
EXTT9=
EXTT10=
EXTT11=
EXTT12=
EXTT13=
EXTT14=
EXTT15=
EXTT16=
EXTT17=
PLAYORDER=
